<html>
<head>
<meta charset="UTF-8">
<meta name="viewport" content="width=device-width, initial-scale=1.0"/>

<style>
.comment
{
    padding-left: 20px;
    margin-top: 4px;
    margin-right: 4px;
    margin-bottom: 4px;
    border: 2px #000 solid;
}
.submission
{
    border: 4px #00f solid;
    padding-left: 20px;
}
.hidden
{
    display: none;
}
</style>
</head>
<body><div class="submission" id="t3_6835x3">
    <p class="userinfo">
        <a href="https://www.reddit.com/u/TheMrMcGibblets">TheMrMcGibblets</a>
        <span class="score"> | 21 points</span>
        <span class="timestamp"> | Apr 28 2017 15:02:13</span>
    </p>
    <strong>[MOVIE] Trailer Park Boys Don't Legalize It (2014) 1080p BluRay H264 AAC-RARBG [1.81GB]</strong>
    <p><p>Add mega</p>
<p>.nz/#!4nJ1QYTR</p>
<p>!cHtiAdqDb8qH69DP_TJvIKKnN8wN3swnN5AU2C3cm8w</p>
<pre><code>Video
ID                                       : 1
Format                                   : AVC
Format/Info                              : Advanced Video Codec
Format profile                           : High@L4.1
Format settings, CABAC                   : Yes
Format settings, ReFrames                : 4 frames
Codec ID                                 : avc1
Codec ID/Info                            : Advanced Video Coding
Duration                                 : 1h 35mn
Bit rate                                 : 2 500 Kbps
Width                                    : 1 920 pixels
Height                                   : 1 080 pixels
Display aspect ratio                     : 16:9
Frame rate mode                          : Constant
Frame rate                               : 23.976 fps
Color space                              : YUV
Chroma subsampling                       : 4:2:0
Bit depth                                : 8 bits
Scan type                                : Progressive
Bits/(Pixel*Frame)                       : 0.050
Stream size                              : 1.66 GiB (92%)
Writing library                          : x264 core 142 r2453kMod ea0ca51

Audio
ID                                       : 2
Format                                   : AAC
Format/Info                              : Advanced Audio Codec
Format profile                           : LC
Codec ID                                 : 40
Duration                                 : 1h 35mn
Duration_LastFrame                       : 43ms
Bit rate mode                            : Constant
Bit rate                                 : 224 Kbps
Channel(s)                               : 6 channels
Channel positions                        : Front: L C R, Side: L R, LFE
Sampling rate                            : 48.0 KHz
Compression mode                         : Lossy
Stream size                              : 153 MiB (8%)
Language                                 : English

Uploaded per requests. Enjoy!
</code></pre></p>
    <p class="toolbar">
        <a href="https://www.reddit.com/r/megalinks/comments/6835x3">permalink</a>
    </p>
</div>

</body>

<script>
function toggle_collapse(comment_div)
{
    var button = comment_div.getElementsByClassName("toggle_hide_button")[0];
    var collapsible = comment_div.getElementsByClassName("collapsible")[0];
    if (collapsible.classList.contains("hidden"))
    {
        collapsible.classList.remove("hidden");
        button.innerText = "[-]";
    }
    else
    {
        collapsible.classList.add("hidden");
        button.innerText = "[+]";
    }
}
</script>
</html>
